<svg width="20" height="20" viewBox="0 0 20 20" fill="none" xmlns="http://www.w3.org/2000/svg">
<path d="M15.8337 8.74999C15.8337 10.6286 15.0874 12.4303 13.759 13.7587C12.4306 15.087 10.6289 15.8333 8.75033 15.8333C6.87171 15.8333 5.07003 15.087 3.74165 13.7587C2.41327 12.4303 1.66699 10.6286 1.66699 8.74999C1.66699 6.87137 2.41327 5.0697 3.74165 3.74132C5.07003 2.41293 6.87171 1.66666 8.75033 1.66666C10.6289 1.66666 12.4306 2.41293 13.759 3.74132C15.0874 5.0697 15.8337 6.87137 15.8337 8.74999Z" fill="#DFDFDF" fill-opacity="0.5"/>
<path d="M17.5003 17.5L13.762 13.755M15.8337 8.74999C15.8337 10.6286 15.0874 12.4303 13.759 13.7587C12.4306 15.087 10.6289 15.8333 8.75033 15.8333C6.87171 15.8333 5.07004 15.087 3.74165 13.7587C2.41327 12.4303 1.66699 10.6286 1.66699 8.74999C1.66699 6.87137 2.41327 5.0697 3.74165 3.74132C5.07004 2.41293 6.87171 1.66666 8.75033 1.66666C10.6289 1.66666 12.4306 2.41293 13.759 3.74132C15.0874 5.0697 15.8337 6.87137 15.8337 8.74999Z" stroke="#814C3A" stroke-width="2" stroke-linecap="round"/>
</svg>
