<svg width="66" height="54" viewBox="0 0 66 54" fill="none" xmlns="http://www.w3.org/2000/svg">
<path d="M5.97656 0.566406H7.73438C10.0547 0.566406 11.6133 0.976562 12.4102 1.79688L12.6211 2.46484V2.57031C12.6211 3.15625 12.2578 3.48438 11.5312 3.55469C10.8281 2.96875 9.42188 2.67578 7.3125 2.67578H6.96094V2.81641C6.96094 7.15234 7.00781 13.1641 7.10156 20.8516C7.21875 28.5391 7.58203 32.793 8.19141 33.6133C7.95703 34.2695 7.55859 34.5977 6.99609 34.5977C6.01172 35.6523 5.41406 31.6211 5.20312 22.5039C4.99219 13.3867 4.88672 6.82422 4.88672 2.81641V2.67578L1.75781 2.88672C1.17188 2.62891 0.878906 2.26562 0.878906 1.79688C0.878906 0.976562 2.57813 0.566406 5.97656 0.566406ZM21.6914 22.2227C22.4414 22.2227 22.8164 23.043 22.8164 24.6836C22.8164 26.5586 22.9453 28.832 23.2031 31.5039C23.9531 31.832 24.3281 32.2305 24.3281 32.6992V32.8398C24.3281 33.4258 23.9297 33.7891 23.1328 33.9297C22.6172 33.9297 22.1719 33.4375 21.7969 32.4531C20.8125 33.7422 19.8516 34.3867 18.9141 34.3867C16.8281 34.3164 15.4922 33.2734 14.9062 31.2578C14.6953 29.0078 14.5898 26.6172 14.5898 24.0859V23.418C14.5898 22.5977 14.9648 22.1875 15.7148 22.1875C16.2539 22.1875 16.582 22.6328 16.6992 23.5234V24.0859C16.2305 29.6641 16.9688 32.3242 18.9141 32.0664C20.2031 31.1992 20.8711 30.0625 20.918 28.6562V27.6719L20.4961 24.4727V24.1211C20.4961 22.8555 20.8945 22.2227 21.6914 22.2227ZM26.6484 0.847656C27.375 0.847656 27.7383 1.94922 27.7383 4.15234C28.3242 22.4805 28.8867 31.6445 29.4258 31.6445L30.4102 31.3984L34.3828 31.5039L35.7188 31.1875C36.0703 31.1875 36.4102 31.5273 36.7383 32.207C36.5039 33.1445 35.543 33.6133 33.8555 33.6133L30.1641 33.543C29.8828 33.543 29.3672 33.7891 28.6172 34.2812H28.0898C27.3633 34.2812 26.8828 31.5508 26.6484 26.0898C26.3672 22.5977 25.9922 14.4297 25.5234 1.58594C25.7109 1.09375 26.0859 0.847656 26.6484 0.847656ZM42.5391 21.8711C44.5547 22.5977 45.6211 24.8242 45.7383 28.5508V28.7617C45.6445 31.8789 44.8359 33.7891 43.3125 34.4922L42.3281 34.6328C39.8203 34.0234 38.5664 32.1367 38.5664 28.9727V28.8672C38.5664 25.4453 39.668 23.1602 41.8711 22.0117L42.5391 21.8711ZM40.6406 28.5508V29.3242C40.8984 31.5273 41.5781 32.6289 42.6797 32.6289C43.3125 31.9258 43.6289 30.5664 43.6289 28.5508V28.3398C43.5117 25.832 43.1133 24.4609 42.4336 24.2266C41.2383 24.7656 40.6406 26.207 40.6406 28.5508ZM54.7734 21.3789C55.6641 21.3789 56.1094 22.6211 56.1094 25.1055C56.25 26.4648 56.3203 29.5703 56.3203 34.4219C56.3203 40.3984 55.7695 45.7539 54.668 50.4883C53.7305 52.2695 52.4648 53.1602 50.8711 53.1602C48.7383 53.1602 46.418 51.8945 43.9102 49.3633L43.6992 48.8359C43.8633 48.0859 44.2383 47.7109 44.8242 47.7109C45.0352 47.7109 45.6211 48.1914 46.582 49.1523C48.293 50.418 49.6172 51.0508 50.5547 51.0508H51.2227C52.6758 51.0508 53.5195 48.1328 53.7539 42.2969C54.082 39.6484 54.2461 36.8359 54.2461 33.8594V32.6289C53.1445 33.168 52.2891 33.4375 51.6797 33.4375C49.7578 33.4375 48.3984 32.2891 47.6016 29.9922C47.2734 29.1484 47.1094 28.2578 47.1094 27.3203C47.1094 24.7188 48.1875 22.8906 50.3438 21.8359L51.8203 21.6953C52.3594 21.6953 52.8984 21.8711 53.4375 22.2227H53.6836C54.1289 21.6602 54.4922 21.3789 54.7734 21.3789ZM50.6602 23.7695C49.7227 24.5898 49.2539 25.8438 49.2539 27.5312C49.2539 29.6875 49.957 30.9531 51.3633 31.3281H51.8203C53.1094 31.3281 53.7539 30.1445 53.7539 27.7773C53.5664 25.1992 52.9453 23.9102 51.8906 23.9102L50.6602 23.7695ZM62.2266 21.8711C64.2422 22.5977 65.3086 24.8242 65.4258 28.5508V28.7617C65.332 31.8789 64.5234 33.7891 63 34.4922L62.0156 34.6328C59.5078 34.0234 58.2539 32.1367 58.2539 28.9727V28.8672C58.2539 25.4453 59.3555 23.1602 61.5586 22.0117L62.2266 21.8711ZM60.3281 28.5508V29.3242C60.5859 31.5273 61.2656 32.6289 62.3672 32.6289C63 31.9258 63.3164 30.5664 63.3164 28.5508V28.3398C63.1992 25.832 62.8008 24.4609 62.1211 24.2266C60.9258 24.7656 60.3281 26.207 60.3281 28.5508Z" fill="#814C3A"/>
</svg>
