<svg width="23" height="29" viewBox="0 0 23 29" fill="none" xmlns="http://www.w3.org/2000/svg">
<path fill-rule="evenodd" clip-rule="evenodd" d="M0 8.89773C0 8.16969 0.624088 7.57955 1.39394 7.57955H21.6061C22.3759 7.57955 23 8.16969 23 8.89773V25.375C23 27.3771 21.2838 29 19.1667 29H3.83333C1.71624 29 0 27.3771 0 25.375V8.89773ZM16.3788 12.8523C15.8014 12.8523 15.3333 12.4096 15.3333 11.8636V5.60227C15.3333 3.60024 13.6171 1.97727 11.5 1.97727C9.38288 1.97727 7.66667 3.60024 7.66667 5.60227V11.8636C7.66667 12.4096 7.19858 12.8523 6.62121 12.8523C6.04384 12.8523 5.57576 12.4096 5.57576 11.8636V5.60227C5.57576 2.50822 8.22814 0 11.5 0C14.7719 0 17.4242 2.50822 17.4242 5.60227V11.8636C17.4242 12.4096 16.9562 12.8523 16.3788 12.8523Z" fill="#814C3A"/>
</svg>
